# xmcd
#
# Track frame offsets: 
#        150
#        14242
#        24655
#        36976
#        51214
#        65087
#        77694
#        90142
#        103655
#        116986
#        130602
#        142602
#        155749
#        168806
#        181469
#        194263
#        206912
#        219941
#        233500
#        248368
#
# Disc length: 3495 seconds
#
# Revision: 0
# Processed by: cddbd v1.5.2PL0 Copyright (c) Steve Scherf et al.
# Submitted via: ExactAudioCopy v0.95a5
#
DISCID=0c0da514
DTITLE=John Lee Hooker - John Lee Hooker
DYEAR=2005
DGENRE=Jazz
TTITLE0=I'm in the mood
TTITLE1=Baby please don't go
TTITLE2=Crying all night
TTITLE3=Don't you remember me
TTITLE4=Nobody to talk to me
TTITLE5=Leave my wife alone
TTITLE6=The story of a married woman
TTITLE7=John Lee's house rent boogie
TTITLE8=Wellfare blues
TTITLE9=I don't be welcome here
TTITLE10=Throw this old dog a bone
TTITLE11=Let your daddy ride
TTITLE12=Lord what more can I do
TTITLE13=Moon is rising
TTITLE14=She left me by myself
TTITLE15=Turnin' gray blues
TTITLE16=Well I got to leave
TTITLE17=I met the grindin' man
TTITLE18=No mortage on my soul
TTITLE19=Louise
EXTD=
EXTT0=
EXTT1=
EXTT2=
EXTT3=
EXTT4=
EXTT5=
EXTT6=
EXTT7=
EXTT8=
EXTT9=
EXTT10=
EXTT11=
EXTT12=
EXTT13=
EXTT14=
EXTT15=
EXTT16=
EXTT17=
EXTT18=
EXTT19=
PLAYORDER=
